<svg id="svg" version="1.1" xmlns="http://www.w3.org/2000/svg" xmlns:xlink="http://www.w3.org/1999/xlink" width="400" height="399.9333444425929" viewBox="0, 0, 400,399.9333444425929"><g id="svgg"><path id="path0" d="M115.583 174.772 C 107.335 175.112,100.790 178.100,96.849 183.324 C 94.564 186.354,94.061 187.984,94.769 190.064 L 95.039 190.855 95.632 189.969 C 97.083 187.804,99.405 185.235,101.253 183.750 C 101.710 183.383,102.121 183.038,102.167 182.983 C 103.068 181.902,108.999 178.822,112.248 177.748 C 115.804 176.573,121.505 175.505,124.242 175.501 C 124.799 175.501,125.164 175.438,125.075 175.358 C 124.738 175.057,118.311 174.660,115.583 174.772 M120.500 180.257 C 116.069 180.677,113.397 181.205,110.000 182.331 C 102.541 184.804,98.218 189.538,99.163 194.198 C 99.453 195.628,99.624 195.853,101.208 196.883 C 104.913 199.294,110.214 201.519,114.160 202.320 C 122.016 203.914,140.527 203.295,153.542 201.002 C 154.069 200.909,154.894 200.764,155.375 200.680 C 163.063 199.330,171.374 196.482,171.639 195.105 C 171.730 194.633,168.410 191.833,167.759 191.833 C 167.690 191.833,164.465 189.953,162.167 188.573 C 161.485 188.164,153.357 184.136,151.833 183.452 C 150.165 182.703,146.522 181.924,140.833 181.097 C 133.795 180.075,125.876 179.748,120.500 180.257 " stroke="none" fill="#fcd444" fill-rule="evenodd"></path><path id="path1" d="M230.083 101.274 C 229.508 101.338,228.162 101.583,226.229 101.977 L 225.708 102.083 226.027 103.083 C 228.895 112.085,230.514 128.098,229.331 135.750 C 228.549 140.803,228.063 143.276,227.146 146.878 C 226.262 150.352,224.753 154.894,223.590 157.583 C 223.471 157.858,223.163 158.571,222.906 159.167 C 220.856 163.923,216.514 170.947,213.244 174.797 C 210.381 178.169,210.779 178.881,215.362 178.581 L 217.198 178.462 219.237 176.439 C 220.359 175.327,221.607 174.004,222.011 173.500 C 222.415 172.996,222.789 172.546,222.843 172.500 C 223.822 171.662,228.362 164.613,230.840 160.083 C 239.860 143.596,242.067 132.101,239.074 117.202 C 238.647 115.078,237.776 111.353,237.486 110.417 C 237.401 110.142,237.027 108.829,236.654 107.500 C 236.281 106.171,235.877 104.783,235.755 104.417 C 235.633 104.050,235.451 103.443,235.351 103.068 C 234.937 101.525,233.195 100.932,230.083 101.274 M218.833 104.234 C 213.443 106.214,209.385 108.080,206.837 109.751 C 205.507 110.623,205.387 110.732,203.830 112.494 C 203.144 113.270,202.445 114.058,202.275 114.244 C 202.105 114.431,201.194 115.607,200.250 116.857 C 190.924 129.209,187.336 140.335,189.722 149.500 C 190.451 152.303,190.621 154.223,191.163 165.750 C 191.353 169.787,191.143 174.889,190.490 182.154 C 190.404 183.109,190.333 185.194,190.333 186.786 L 190.333 189.682 190.958 189.565 C 195.775 188.663,204.846 180.079,211.192 170.417 C 216.070 162.990,220.208 153.954,222.336 146.083 C 223.037 143.492,222.989 143.692,223.559 141.000 C 226.122 128.893,225.481 113.400,222.046 104.458 C 221.532 103.120,221.814 103.140,218.833 104.234 " stroke="none" fill="#04b4e4" fill-rule="evenodd"></path><path id="path2" d="M152.908 127.824 C 145.334 130.521,143.751 143.356,149.195 157.917 C 150.327 160.944,150.494 161.336,152.134 164.833 C 155.563 172.148,162.339 180.813,168.166 185.335 C 168.578 185.655,169.028 186.007,169.166 186.118 C 170.721 187.367,172.592 188.478,171.565 187.543 C 171.389 187.382,170.683 186.614,169.997 185.837 C 169.311 185.060,168.660 184.327,168.549 184.208 C 168.439 184.089,168.064 183.637,167.716 183.204 C 167.368 182.771,167.040 182.379,166.987 182.333 C 166.933 182.287,166.214 181.350,165.389 180.250 C 160.399 173.601,156.671 166.553,155.163 160.917 C 151.509 147.253,151.158 135.771,154.177 128.625 L 154.652 127.500 154.201 127.512 C 153.953 127.519,153.371 127.659,152.908 127.824 M160.573 128.818 C 157.461 131.107,155.559 138.529,156.426 145.000 C 156.568 146.054,156.750 147.479,156.831 148.167 C 157.310 152.233,158.517 156.349,160.667 161.250 C 160.828 161.617,161.352 162.817,161.832 163.917 C 169.300 181.029,179.309 194.547,182.223 191.456 C 183.339 190.274,185.343 180.771,185.080 177.917 C 184.866 175.604,184.640 173.509,184.486 172.417 C 184.191 170.318,183.712 167.287,183.486 166.083 C 179.330 143.989,174.935 134.853,166.333 130.432 C 162.254 128.336,161.512 128.128,160.573 128.818 M238.833 176.172 C 236.656 176.304,235.002 176.486,232.917 176.823 C 230.805 177.163,229.756 177.355,229.701 177.410 C 229.670 177.441,231.618 177.457,234.030 177.445 C 238.892 177.421,242.848 177.748,248.000 178.598 C 257.043 180.091,265.072 184.458,269.505 190.293 L 270.297 191.335 271.166 189.886 L 272.035 188.437 270.725 187.177 C 262.195 178.965,251.809 175.381,238.833 176.172 M230.583 181.179 C 223.252 181.766,217.440 183.112,209.442 186.077 C 196.138 191.008,190.325 194.405,189.605 197.672 C 189.481 198.233,189.651 198.833,189.933 198.833 C 190.057 198.833,190.705 199.015,191.371 199.237 C 192.038 199.459,193.258 199.839,194.083 200.081 C 195.461 200.485,196.266 200.715,198.833 201.436 C 207.816 203.959,216.662 205.638,225.667 206.529 C 228.401 206.799,238.556 206.800,240.667 206.530 C 245.035 205.971,244.948 205.985,247.500 205.473 C 253.141 204.341,258.430 202.314,263.000 199.531 C 265.611 197.941,265.663 197.837,265.082 195.372 C 262.992 186.505,246.877 179.876,230.583 181.179 M177.583 205.160 C 173.811 206.295,168.185 209.249,164.436 212.063 C 161.890 213.974,156.561 219.612,156.055 220.931 C 155.772 221.669,157.236 223.928,158.401 224.551 C 164.282 227.698,180.167 215.189,180.167 207.411 C 180.167 206.286,179.297 204.774,178.691 204.846 C 178.632 204.853,178.133 204.994,177.583 205.160 M182.047 215.654 C 179.840 220.128,175.794 223.886,169.250 227.537 C 161.764 231.715,156.009 231.857,153.942 227.917 L 153.680 227.417 153.675 228.083 C 153.608 237.709,169.965 236.785,177.263 226.750 C 177.530 226.383,177.786 226.046,177.833 226.000 C 177.935 225.899,178.594 224.887,179.298 223.750 C 180.536 221.748,182.024 218.025,182.750 215.114 C 183.139 213.554,183.050 213.623,182.047 215.654 " stroke="none" fill="#cab929" fill-rule="evenodd"></path><path id="path3" d="M215.417 93.013 C 204.367 95.955,196.410 101.219,188.886 110.562 C 184.151 116.442,180.379 126.837,182.763 127.435 C 183.804 127.696,186.252 124.934,188.246 121.250 C 188.593 120.608,189.083 119.708,189.333 119.250 C 189.584 118.792,190.074 117.892,190.422 117.250 C 194.249 110.193,202.614 101.778,208.580 98.983 C 217.616 94.750,222.376 99.763,224.581 115.833 C 226.301 128.366,224.274 143.179,219.174 155.333 C 218.886 156.021,218.528 156.883,218.379 157.250 C 217.393 159.674,214.215 165.649,212.174 168.917 C 203.906 182.151,191.074 192.913,188.605 188.684 C 188.246 188.070,188.254 187.806,188.875 178.917 C 189.151 174.980,189.148 159.214,188.871 156.500 C 188.491 152.775,188.121 150.131,187.645 147.750 C 185.639 137.718,181.941 130.874,176.167 126.509 C 175.123 125.720,172.630 124.167,172.407 124.167 C 172.372 124.167,171.922 123.974,171.407 123.738 C 167.174 121.802,162.347 121.344,159.560 122.614 C 157.548 123.531,155.083 126.012,154.623 127.583 C 154.569 127.767,154.325 128.394,154.081 128.978 C 151.002 136.343,151.884 151.579,156.090 163.662 C 158.500 170.587,163.977 179.242,170.354 186.204 C 171.087 187.004,171.952 187.979,172.277 188.371 C 172.602 188.763,173.405 189.646,174.061 190.333 C 174.718 191.021,175.591 191.996,176.002 192.500 C 176.414 193.004,176.798 193.454,176.857 193.500 C 177.140 193.720,178.000 195.681,177.999 196.104 C 177.996 198.550,173.005 200.540,158.000 204.075 C 144.174 207.333,129.769 208.512,121.083 207.096 C 120.808 207.051,120.058 206.931,119.417 206.830 C 102.710 204.195,94.239 194.665,101.807 187.019 C 105.329 183.461,110.677 181.413,119.333 180.307 C 121.673 180.008,131.837 180.009,134.583 180.309 C 140.906 180.998,145.682 181.737,149.417 182.604 C 150.425 182.838,151.550 183.097,151.917 183.179 C 152.283 183.262,153.221 183.480,154.000 183.664 C 155.575 184.036,158.826 184.692,160.519 184.980 C 168.901 186.402,166.045 182.929,156.145 179.661 C 151.913 178.263,146.075 176.895,141.583 176.246 C 120.600 173.215,104.895 177.600,96.514 188.829 C 88.820 199.137,95.491 206.275,115.500 209.147 C 116.636 209.310,118.121 209.490,120.430 209.744 C 125.866 210.342,137.714 210.518,143.500 210.086 C 148.983 209.677,149.519 209.581,156.833 207.715 C 159.537 207.025,162.987 206.168,164.500 205.811 C 180.718 201.986,184.083 204.974,175.952 215.981 C 171.889 221.482,163.109 226.030,158.936 224.797 C 156.353 224.034,155.743 221.975,155.994 214.864 C 156.143 210.628,154.281 212.704,153.257 217.914 C 150.655 231.155,158.335 234.559,171.667 226.072 C 179.800 220.896,183.223 215.958,184.082 208.167 C 184.305 206.144,184.750 205.333,185.639 205.333 C 186.987 205.333,191.589 207.495,198.583 211.414 C 198.950 211.620,199.700 212.033,200.250 212.334 C 200.800 212.634,201.569 213.057,201.958 213.273 C 203.875 214.338,204.218 214.528,204.875 214.890 C 209.920 217.666,214.735 220.134,218.750 222.002 C 230.967 227.685,236.113 227.993,228.000 222.555 C 225.497 220.877,219.898 217.565,216.000 215.455 C 215.496 215.183,214.783 214.790,214.417 214.583 C 214.050 214.376,213.169 213.898,212.458 213.520 C 211.748 213.142,210.585 212.523,209.875 212.143 C 208.258 211.279,206.246 210.224,203.250 208.669 C 201.967 208.002,200.617 207.288,200.250 207.082 C 199.883 206.876,199.171 206.483,198.667 206.209 C 191.163 202.135,188.648 199.478,189.830 196.872 C 190.748 194.851,194.733 192.108,200.167 189.759 C 200.762 189.501,201.550 189.157,201.917 188.994 C 205.954 187.200,213.714 184.407,217.583 183.356 C 234.950 178.637,253.273 181.348,261.766 189.892 C 269.790 197.965,263.715 206.252,247.833 208.899 C 242.190 209.839,241.574 209.844,232.375 209.004 C 231.344 208.910,229.656 208.756,228.625 208.662 C 210.356 206.992,206.415 207.601,213.994 210.926 C 218.022 212.692,221.123 213.489,226.667 214.183 C 231.619 214.803,241.559 214.237,247.750 212.981 C 267.710 208.934,276.708 199.911,269.881 190.788 C 267.278 187.309,261.735 183.075,257.333 181.203 C 251.492 178.719,239.719 176.995,231.889 177.478 C 230.162 177.584,227.963 177.710,227.000 177.759 C 225.250 177.847,224.293 177.914,217.400 178.434 C 210.187 178.977,210.044 178.761,214.179 173.580 C 217.923 168.889,221.526 162.675,223.842 156.917 C 226.498 150.313,227.935 144.774,229.331 135.750 C 230.795 126.284,228.124 106.476,224.311 98.531 C 221.894 93.494,219.406 91.951,215.417 93.013 M166.058 128.243 C 172.177 130.403,178.892 140.088,182.527 152.000 C 186.064 163.588,186.395 176.961,183.432 188.522 C 182.302 192.931,180.827 193.213,177.325 189.686 C 171.617 183.939,162.114 166.631,158.277 154.992 C 156.871 150.730,155.930 143.111,156.345 139.362 C 157.343 130.357,160.807 126.390,166.058 128.243 M320.167 234.417 L 320.167 235.000 321.060 235.000 L 321.954 235.000 322.050 235.812 C 322.103 236.258,322.102 237.458,322.048 238.478 L 321.950 240.333 322.725 240.333 L 323.500 240.333 323.500 237.667 L 323.500 235.000 324.417 235.000 L 325.333 235.000 325.333 234.417 L 325.333 233.833 322.750 233.833 L 320.167 233.833 320.167 234.417 M326.777 235.208 C 326.665 236.703,326.416 238.805,326.240 239.743 L 326.130 240.333 326.875 240.333 L 327.621 240.333 327.727 239.560 C 327.786 239.135,327.838 238.066,327.843 237.185 L 327.853 235.583 328.634 237.958 L 329.416 240.333 330.021 240.333 C 330.578 240.333,330.640 240.284,330.802 239.708 C 330.898 239.365,331.235 238.338,331.550 237.426 L 332.123 235.769 332.245 238.051 L 332.367 240.333 333.191 240.333 L 334.015 240.333 333.932 239.792 C 333.886 239.494,333.755 238.031,333.642 236.542 L 333.436 233.833 332.482 233.833 L 331.527 233.833 330.913 235.751 C 330.131 238.192,330.153 238.190,329.498 235.827 L 328.946 233.833 327.913 233.833 L 326.880 233.833 326.777 235.208 M248.000 256.417 L 248.000 272.833 252.583 272.833 L 257.167 272.833 257.167 256.417 L 257.167 240.000 252.583 240.000 L 248.000 240.000 248.000 256.417 M260.333 256.417 L 260.333 272.833 265.000 272.833 L 269.667 272.833 269.667 256.417 L 269.667 240.000 265.000 240.000 L 260.333 240.000 260.333 256.417 M79.583 240.928 C 76.268 241.381,74.539 241.976,72.433 243.388 C 69.085 245.631,67.358 248.554,66.309 253.750 C 66.045 255.056,66.045 260.611,66.309 261.917 C 67.159 266.126,68.326 268.503,70.482 270.415 C 74.845 274.284,83.521 274.358,86.997 270.555 L 87.818 269.657 87.986 270.287 C 88.079 270.633,88.260 271.329,88.388 271.833 L 88.621 272.750 92.061 272.795 L 95.500 272.840 95.500 264.587 L 95.500 256.333 89.250 256.333 L 83.000 256.333 83.000 259.417 L 83.000 262.500 84.500 262.500 C 86.192 262.500,86.203 262.512,85.814 263.915 C 85.012 266.803,79.193 266.913,77.214 264.077 C 75.499 261.619,75.571 252.967,77.327 250.430 C 78.413 248.862,79.545 248.309,81.667 248.311 C 84.457 248.314,86.152 249.965,86.165 252.692 C 86.167 253.103,86.211 253.131,86.792 253.074 C 87.135 253.040,88.204 252.937,89.167 252.845 C 90.129 252.753,91.843 252.585,92.974 252.472 L 95.032 252.268 94.918 251.202 C 94.363 246.023,91.375 242.557,86.417 241.340 C 84.966 240.985,80.944 240.742,79.583 240.928 M193.280 242.123 C 193.416 242.559,193.672 243.385,193.847 243.958 C 194.023 244.531,194.311 245.469,194.487 246.042 C 194.663 246.615,195.107 248.058,195.473 249.250 C 195.838 250.442,196.250 251.754,196.386 252.167 C 196.523 252.579,196.872 253.704,197.162 254.667 C 197.451 255.629,197.754 256.604,197.833 256.833 C 197.913 257.063,198.216 258.037,198.506 259.000 C 198.797 259.962,199.245 261.425,199.503 262.250 C 199.760 263.075,200.273 264.725,200.642 265.917 C 201.010 267.108,201.617 269.056,201.989 270.244 C 202.362 271.433,202.667 272.502,202.667 272.621 C 202.667 272.795,203.921 272.829,209.110 272.794 L 215.553 272.750 215.847 271.750 C 216.009 271.200,216.303 270.225,216.499 269.583 C 216.879 268.347,217.520 266.217,218.318 263.542 C 218.737 262.140,219.318 260.226,220.860 255.167 C 221.042 254.571,221.410 253.352,221.679 252.458 C 221.947 251.565,222.386 250.102,222.655 249.208 C 223.313 247.017,223.689 245.778,224.400 243.460 C 224.730 242.384,225.000 241.465,225.000 241.419 C 225.000 241.372,222.831 241.333,220.180 241.333 L 215.359 241.333 215.195 241.875 C 215.105 242.173,214.984 242.604,214.926 242.833 C 214.868 243.063,214.366 245.012,213.812 247.167 C 212.364 252.795,211.296 256.966,210.388 260.542 C 209.952 262.260,209.539 263.667,209.470 263.667 C 209.323 263.667,209.320 263.658,207.915 257.917 C 206.240 251.077,204.353 243.359,204.105 242.333 L 203.883 241.417 198.457 241.373 L 193.031 241.329 193.280 242.123 M112.083 249.569 C 110.184 250.041,108.655 251.117,107.627 252.702 C 107.333 253.156,107.064 253.443,107.030 253.340 C 106.996 253.237,106.843 252.424,106.691 251.535 L 106.414 249.917 102.457 249.872 L 98.500 249.827 98.500 261.330 L 98.500 272.833 103.083 272.833 L 107.667 272.833 107.667 266.285 L 107.667 259.736 108.579 259.275 C 110.145 258.481,112.206 258.001,114.042 258.000 L 115.167 258.000 115.167 253.769 L 115.167 249.539 114.792 249.438 C 114.210 249.282,113.001 249.341,112.083 249.569 M125.417 249.583 C 118.253 250.745,114.562 257.446,116.605 265.583 C 118.143 271.713,125.006 274.878,132.250 272.798 C 135.331 271.913,138.344 268.677,138.333 266.264 C 138.332 266.126,132.905 264.657,131.319 264.366 C 131.130 264.332,131.014 264.472,130.944 264.822 C 130.700 266.042,129.191 266.963,127.833 266.721 C 126.573 266.495,126.113 265.854,125.907 264.035 L 125.790 263.000 132.062 263.000 L 138.333 263.000 138.333 260.958 C 138.332 252.404,133.618 248.252,125.417 249.583 M149.167 249.589 C 144.291 250.452,141.493 253.008,140.139 257.833 C 139.323 260.741,140.392 267.865,141.814 269.000 C 141.872 269.046,142.133 269.371,142.396 269.723 C 143.553 271.275,145.970 272.610,148.495 273.093 C 154.959 274.330,160.655 271.748,161.842 267.045 C 162.112 265.971,162.530 266.197,158.417 265.188 C 154.424 264.209,154.667 264.246,154.667 264.610 C 154.667 265.673,153.430 266.731,152.188 266.731 C 150.526 266.731,149.821 265.980,149.587 263.958 L 149.476 263.000 155.755 263.000 L 162.034 263.000 161.958 260.208 C 161.740 252.122,157.015 248.199,149.167 249.589 M177.750 249.450 C 176.172 249.659,174.525 250.353,173.375 251.294 C 172.681 251.861,172.667 251.865,172.666 251.478 C 172.665 251.261,172.587 250.802,172.491 250.458 L 172.318 249.833 168.242 249.833 L 164.167 249.833 164.167 261.333 L 164.167 272.833 168.750 272.833 L 173.333 272.833 173.333 265.145 C 173.333 256.431,173.231 257.053,174.729 256.650 C 177.346 255.945,177.477 256.381,177.490 265.875 L 177.500 272.833 182.083 272.833 L 186.667 272.833 186.661 264.042 C 186.654 254.789,186.620 254.296,185.874 252.659 C 184.785 250.273,181.457 248.958,177.750 249.450 M230.583 249.583 C 226.389 250.183,223.972 252.149,223.062 255.698 C 222.723 257.023,222.385 256.869,227.417 257.681 C 227.875 257.755,228.700 257.894,229.250 257.990 C 229.800 258.086,230.297 258.165,230.355 258.166 C 230.413 258.166,230.545 257.829,230.649 257.417 C 230.965 256.163,231.611 255.595,232.720 255.595 C 234.143 255.595,234.667 256.401,234.667 258.592 L 234.667 259.333 233.819 259.333 C 224.918 259.333,219.949 264.182,222.725 270.160 C 224.467 273.914,230.887 274.562,234.220 271.321 C 234.775 270.781,235.237 270.357,235.246 270.378 C 236.475 273.116,239.546 273.995,244.326 272.977 C 246.548 272.504,246.426 272.688,246.366 269.898 L 246.316 267.546 245.197 267.626 C 243.624 267.738,243.692 268.003,243.616 261.417 C 243.546 255.330,243.460 254.709,242.451 253.023 C 240.739 250.158,236.055 248.801,230.583 249.583 M281.167 249.583 C 275.135 250.623,271.963 254.698,271.954 261.417 C 271.943 269.229,275.923 273.250,283.667 273.250 C 288.648 273.250,291.888 271.650,293.383 268.453 C 293.761 267.645,294.228 266.131,294.116 266.077 C 294.098 266.068,292.478 265.667,290.517 265.186 C 286.823 264.279,286.676 264.273,286.669 265.014 C 286.664 265.542,285.616 266.514,284.875 266.678 C 282.886 267.119,281.667 265.978,281.667 263.676 L 281.667 263.000 287.823 263.000 L 293.980 263.000 294.094 262.238 C 294.315 260.766,293.945 257.178,293.403 255.537 C 291.880 250.925,287.041 248.570,281.167 249.583 M294.243 250.458 C 294.368 250.802,294.785 251.908,295.168 252.917 C 295.831 254.661,296.168 255.558,297.348 258.708 C 297.632 259.465,298.082 260.665,298.348 261.375 C 299.621 264.765,299.903 265.521,300.416 266.917 C 300.719 267.742,301.358 269.429,301.836 270.667 C 302.942 273.533,302.929 273.461,302.471 274.324 C 301.699 275.779,300.590 276.064,298.185 275.428 C 296.843 275.072,296.901 274.985,296.677 277.730 C 296.573 279.002,296.444 280.359,296.391 280.746 C 296.268 281.647,296.510 281.759,299.652 282.253 C 306.184 283.280,309.209 281.216,311.749 274.000 C 314.529 266.101,315.519 263.257,316.333 260.833 C 316.687 259.779,317.278 258.054,317.646 257.000 C 318.014 255.946,318.723 253.902,319.221 252.458 L 320.127 249.833 315.327 249.833 L 310.527 249.833 310.179 251.375 C 309.987 252.223,309.277 255.392,308.601 258.417 C 307.926 261.442,307.334 263.804,307.286 263.667 C 307.238 263.529,307.120 263.079,307.023 262.667 C 306.653 261.091,305.984 258.266,305.593 256.625 C 304.889 253.670,304.163 250.598,304.077 250.208 L 303.994 249.833 299.004 249.833 L 294.015 249.833 294.243 250.458 M127.876 255.512 C 128.449 255.773,128.692 256.264,128.791 257.360 L 128.880 258.333 127.334 258.333 L 125.787 258.333 125.900 257.378 C 126.025 256.316,126.336 255.723,126.885 255.502 C 127.374 255.305,127.423 255.305,127.876 255.512 M151.765 255.649 C 152.190 255.908,152.313 256.130,152.473 256.926 C 152.774 258.422,152.862 258.333,151.073 258.333 L 149.480 258.333 149.585 257.542 C 149.838 255.644,150.630 254.956,151.765 255.649 M283.984 255.729 C 284.349 256.021,284.667 256.922,284.667 257.661 L 284.667 258.333 283.167 258.333 L 281.667 258.333 281.667 257.542 C 281.669 255.878,282.935 254.887,283.984 255.729 M234.667 265.315 L 234.667 266.797 233.997 267.065 C 233.039 267.448,232.391 267.406,231.916 266.931 C 230.713 265.728,231.636 264.244,233.750 263.983 C 234.208 263.927,234.602 263.870,234.625 263.857 C 234.648 263.844,234.667 264.500,234.667 265.315 M215.250 280.440 C 202.170 282.496,200.609 303.261,213.271 306.764 C 221.870 309.144,229.396 302.839,229.403 293.250 C 229.410 284.766,223.242 279.183,215.250 280.440 M243.750 280.426 C 243.567 280.469,243.004 280.584,242.500 280.683 C 233.512 282.440,229.582 296.090,236.013 303.211 C 239.046 306.569,243.536 307.922,248.038 306.834 C 260.223 303.889,261.427 284.943,249.683 280.954 C 248.287 280.480,244.844 280.174,243.750 280.426 M143.083 280.580 C 142.992 280.609,142.354 280.761,141.667 280.917 C 137.649 281.829,135.675 284.295,135.874 288.156 C 136.045 291.489,137.599 293.324,141.975 295.361 C 147.210 297.797,148.000 298.445,148.000 300.303 C 148.000 302.809,143.024 303.699,137.583 302.165 C 136.103 301.747,136.284 301.565,135.758 303.990 C 135.218 306.482,135.166 306.286,136.441 306.578 C 144.935 308.521,152.064 306.277,153.169 301.312 C 154.242 296.486,151.868 293.415,144.819 290.512 C 141.353 289.085,140.123 287.401,141.421 285.858 C 142.426 284.665,146.480 284.320,149.721 285.153 C 150.530 285.361,151.220 285.502,151.255 285.467 C 151.432 285.290,152.017 281.283,151.885 281.151 C 151.475 280.741,144.077 280.261,143.083 280.580 M167.438 280.755 C 160.632 281.898,156.287 287.190,156.299 294.324 C 156.310 300.737,159.826 305.144,166.167 306.693 C 167.377 306.988,172.737 306.990,174.000 306.695 C 174.504 306.577,175.085 306.446,175.292 306.404 C 175.634 306.334,175.668 306.231,175.677 305.205 C 175.683 304.588,175.742 303.540,175.808 302.875 C 175.875 302.210,175.926 301.667,175.922 301.667 C 175.918 301.667,175.652 301.744,175.332 301.839 C 173.091 302.502,169.692 302.703,168.058 302.268 C 159.925 300.102,159.827 286.671,167.934 285.146 C 169.478 284.856,173.139 285.218,173.991 285.745 C 174.076 285.797,174.193 285.482,174.250 285.045 C 174.308 284.608,174.420 283.875,174.499 283.417 C 174.940 280.844,175.066 281.062,172.953 280.740 C 171.085 280.455,169.189 280.461,167.438 280.755 M69.431 281.542 C 69.594 282.455,69.591 304.856,69.428 305.792 L 69.304 306.500 72.131 306.500 L 74.958 306.500 74.872 301.690 L 74.786 296.880 76.851 296.784 C 83.422 296.478,87.292 293.794,88.000 289.052 C 88.546 285.402,87.068 282.842,83.667 281.539 C 82.007 280.904,81.154 280.833,75.144 280.833 L 69.304 280.833 69.431 281.542 M91.750 293.667 L 91.750 306.500 94.481 306.500 L 97.212 306.500 97.090 301.395 L 96.967 296.290 98.864 296.363 C 102.588 296.505,103.898 298.189,106.200 305.792 L 106.414 306.500 109.374 306.500 C 111.002 306.500,112.333 306.442,112.333 306.371 C 112.333 306.020,109.686 299.690,108.875 298.103 C 107.842 296.080,106.701 294.760,105.545 294.250 L 104.843 293.940 106.106 293.253 C 111.297 290.431,111.444 283.598,106.356 281.606 C 104.629 280.930,103.530 280.833,97.531 280.833 L 91.750 280.833 91.750 293.667 M115.583 293.667 L 115.583 306.500 123.958 306.500 L 132.333 306.500 132.333 304.232 C 132.333 302.356,132.293 301.980,132.100 302.054 C 131.971 302.103,129.433 302.197,126.460 302.263 L 121.053 302.382 120.943 300.832 C 120.883 299.980,120.833 298.353,120.833 297.217 L 120.833 295.151 125.167 295.200 L 129.500 295.250 129.500 293.167 L 129.500 291.083 125.209 291.177 C 122.848 291.229,120.907 291.266,120.895 291.260 C 120.884 291.255,120.820 289.834,120.754 288.103 L 120.634 284.956 125.275 285.068 C 127.828 285.131,130.235 285.224,130.625 285.276 L 131.333 285.371 131.335 283.977 C 131.336 283.211,131.384 282.190,131.441 281.708 L 131.546 280.833 123.565 280.833 L 115.583 280.833 115.583 293.667 M179.769 284.042 C 179.936 288.169,179.936 298.032,179.767 302.792 L 179.636 306.500 182.485 306.500 L 185.334 306.500 185.223 300.833 L 185.113 295.167 190.000 295.167 L 194.887 295.167 194.772 300.833 L 194.657 306.500 197.493 306.500 L 200.329 306.500 200.206 302.625 C 200.048 297.627,200.049 288.701,200.209 284.292 L 200.334 280.833 197.505 280.833 L 194.675 280.833 194.781 285.917 L 194.887 291.000 189.940 291.000 L 184.993 291.000 185.077 289.458 C 185.123 288.610,185.203 286.323,185.253 284.375 L 185.346 280.833 182.492 280.833 L 179.638 280.833 179.769 284.042 M262.109 280.958 C 262.067 281.027,262.108 282.883,262.200 285.083 C 262.367 289.045,262.266 303.661,262.059 305.542 L 261.953 306.500 270.227 306.500 L 278.500 306.500 278.502 304.958 C 278.503 304.110,278.551 303.132,278.608 302.783 L 278.713 302.150 272.915 302.268 L 267.117 302.386 267.214 301.985 C 267.268 301.764,267.355 298.433,267.407 294.583 C 267.460 290.733,267.546 286.065,267.598 284.208 L 267.694 280.833 264.940 280.833 C 263.425 280.833,262.152 280.890,262.109 280.958 M78.885 284.686 C 81.637 285.112,82.836 286.358,82.831 288.786 C 82.824 291.567,80.328 293.167,75.995 293.167 L 74.884 293.167 74.721 289.042 C 74.529 284.186,74.366 284.869,75.761 284.690 C 77.406 284.479,77.552 284.479,78.885 284.686 M101.983 284.845 C 103.905 285.257,104.746 286.370,104.749 288.500 C 104.751 291.384,102.856 292.656,98.542 292.664 L 97.000 292.667 97.000 290.776 C 97.000 289.736,96.951 287.980,96.892 286.873 L 96.784 284.860 97.267 284.788 C 98.274 284.639,101.184 284.674,101.983 284.845 M219.423 285.260 C 222.779 286.795,224.734 291.589,223.818 296.033 C 221.875 305.458,211.511 304.794,210.147 295.159 C 209.187 288.372,214.299 282.916,219.423 285.260 M247.895 285.347 C 251.213 287.018,253.026 291.683,252.090 296.137 C 249.963 306.248,238.420 304.162,238.420 293.667 C 238.420 287.117,243.155 282.960,247.895 285.347 M115.612 316.020 C 115.718 317.525,115.716 317.538,115.371 317.353 C 114.417 316.843,112.706 317.337,112.049 318.314 C 110.151 321.136,112.529 324.700,115.342 323.246 C 115.782 323.018,115.833 323.018,115.833 323.246 C 115.833 323.524,116.024 323.553,116.813 323.396 L 117.333 323.292 117.333 318.896 L 117.333 314.500 116.418 314.500 L 115.504 314.500 115.612 316.020 M121.226 315.775 C 121.285 316.476,121.333 318.468,121.333 320.200 L 121.333 323.350 122.208 323.352 C 122.690 323.353,123.571 323.392,124.167 323.439 C 126.018 323.584,127.237 322.321,127.246 320.250 C 127.255 317.944,125.472 316.625,123.375 317.386 C 123.004 317.521,123.000 317.508,123.000 316.011 L 123.000 314.500 122.059 314.500 L 121.118 314.500 121.226 315.775 M185.339 318.917 L 185.339 323.333 186.211 323.333 L 187.083 323.333 187.083 318.917 L 187.083 314.500 186.212 314.500 L 185.340 314.500 185.339 318.917 M188.581 318.916 L 188.583 323.333 189.458 323.333 L 190.333 323.333 190.333 318.917 L 190.333 314.500 189.456 314.500 L 188.578 314.500 188.581 318.916 M218.892 315.775 C 218.951 316.476,219.000 318.464,219.000 320.192 L 219.000 323.333 219.833 323.333 L 220.667 323.333 220.667 321.110 L 220.667 318.887 221.326 318.669 C 222.700 318.216,223.085 318.903,222.965 321.596 L 222.888 323.333 223.777 323.333 L 224.667 323.333 224.667 320.992 C 224.667 317.451,223.525 316.295,221.202 317.483 L 220.583 317.799 220.636 316.149 L 220.689 314.500 219.737 314.500 L 218.784 314.500 218.892 315.775 M239.893 315.125 C 239.950 315.469,239.997 317.456,239.998 319.542 L 240.000 323.333 240.833 323.333 L 241.667 323.333 241.667 318.917 L 241.667 314.500 240.728 314.500 L 239.790 314.500 239.893 315.125 M273.226 315.524 C 273.285 316.088,273.333 318.075,273.333 319.941 L 273.333 323.333 274.167 323.333 L 275.000 323.333 275.000 321.110 L 275.000 318.886 275.691 318.679 C 277.009 318.284,277.250 318.679,277.250 321.227 L 277.250 323.334 278.125 323.334 L 279.000 323.333 279.000 320.992 C 279.000 318.387,278.853 317.858,278.005 317.419 C 277.320 317.065,276.193 317.101,275.542 317.498 L 275.000 317.828 275.000 316.164 L 275.000 314.500 274.060 314.500 L 273.119 314.500 273.226 315.524 M283.416 318.916 L 283.417 323.333 284.292 323.333 L 285.167 323.333 285.167 318.917 L 285.167 314.500 284.291 314.500 L 283.415 314.500 283.416 318.916 M290.358 315.984 C 290.411 317.333,290.391 317.454,290.136 317.317 C 289.246 316.840,287.517 317.371,286.881 318.317 C 284.977 321.147,287.354 324.704,290.175 323.246 C 290.616 323.018,290.667 323.018,290.667 323.246 C 290.667 323.521,290.859 323.553,291.612 323.403 L 292.099 323.305 292.091 318.903 L 292.083 314.500 291.192 314.500 L 290.300 314.500 290.358 315.984 M280.426 315.037 C 279.863 315.841,280.273 316.667,281.236 316.667 C 282.143 316.667,282.608 315.824,282.161 314.989 C 281.904 314.510,280.773 314.541,280.426 315.037 M69.500 319.250 L 69.500 323.333 70.354 323.333 L 71.207 323.333 71.089 320.542 C 70.981 317.997,70.994 317.780,71.230 318.083 C 71.373 318.267,71.492 318.479,71.495 318.555 C 71.500 318.692,73.482 321.672,73.675 321.833 C 73.730 321.879,73.952 322.235,74.168 322.625 C 74.546 323.306,74.593 323.333,75.364 323.333 L 76.167 323.333 76.167 319.250 L 76.167 315.167 75.351 315.167 L 74.535 315.167 74.606 317.292 C 74.644 318.460,74.703 319.745,74.737 320.146 L 74.797 320.876 74.350 320.063 C 74.105 319.616,73.472 318.589,72.945 317.782 C 72.417 316.974,71.862 316.056,71.712 315.740 C 71.446 315.184,71.409 315.167,70.469 315.167 L 69.500 315.167 69.500 319.250 M139.540 315.389 C 136.028 316.663,135.983 322.260,139.476 323.307 C 140.277 323.547,142.207 323.556,143.042 323.325 L 143.667 323.151 143.667 321.159 L 143.667 319.167 142.782 319.167 L 141.897 319.167 141.969 320.667 L 142.041 322.167 141.457 322.167 C 139.426 322.167,138.119 320.037,138.970 318.113 C 139.488 316.942,140.108 316.625,141.693 316.722 C 143.095 316.807,143.159 316.760,143.164 315.625 L 143.167 315.167 141.625 315.179 C 140.777 315.186,139.839 315.281,139.540 315.389 M171.500 315.485 C 171.500 315.661,171.957 317.104,172.515 318.694 C 173.073 320.283,173.647 321.980,173.790 322.466 L 174.051 323.348 174.965 323.299 L 175.879 323.250 176.171 322.333 C 176.332 321.829,176.772 320.646,177.149 319.703 C 178.927 315.259,178.940 315.167,177.753 315.167 C 176.891 315.167,176.834 315.192,176.746 315.625 C 176.582 316.421,176.327 317.365,175.811 319.083 C 175.150 321.287,175.132 321.329,175.043 320.917 C 175.004 320.733,174.686 319.571,174.337 318.333 C 173.989 317.096,173.656 315.877,173.599 315.625 C 173.461 315.024,171.500 314.893,171.500 315.485 M207.894 315.486 C 207.141 315.946,206.833 316.473,206.833 317.304 C 206.833 318.703,207.184 319.121,209.171 320.094 C 211.703 321.333,210.489 322.826,207.643 321.973 C 206.876 321.743,206.879 321.742,206.739 322.614 C 206.602 323.470,206.738 323.527,208.910 323.523 C 211.370 323.518,212.333 322.853,212.333 321.162 C 212.333 319.739,211.934 319.270,209.963 318.374 C 207.438 317.227,208.395 316.109,211.406 316.688 C 211.737 316.752,212.084 315.858,211.916 315.375 C 211.788 315.007,208.533 315.097,207.894 315.486 M246.000 319.250 L 246.000 323.333 246.833 323.333 L 247.667 323.333 247.667 321.750 L 247.667 320.167 249.000 320.167 L 250.333 320.167 250.333 319.500 L 250.333 318.833 249.000 318.833 L 247.667 318.833 247.667 317.756 L 247.667 316.678 249.375 316.631 L 251.083 316.583 251.135 315.875 L 251.186 315.167 248.593 315.167 L 246.000 315.167 246.000 319.250 M268.873 315.389 C 265.359 316.664,265.314 322.259,268.810 323.307 C 269.522 323.520,271.811 323.566,272.100 323.372 C 272.201 323.305,272.323 322.944,272.372 322.570 L 272.461 321.890 270.991 321.903 C 269.262 321.919,268.552 321.458,268.163 320.069 C 267.586 318.010,268.815 316.523,270.929 316.721 L 271.968 316.818 272.028 316.064 C 272.061 315.649,272.055 315.278,272.016 315.238 C 271.862 315.084,269.386 315.203,268.873 315.389 M90.917 315.629 C 89.887 315.786,89.833 315.825,89.833 316.406 C 89.833 317.227,89.683 317.500,89.232 317.500 C 88.878 317.500,88.833 317.575,88.833 318.167 C 88.833 318.758,88.878 318.833,89.232 318.833 C 89.623 318.833,89.631 318.866,89.697 320.625 C 89.787 323.062,90.113 323.500,91.831 323.500 C 92.726 323.500,92.743 323.487,92.908 322.718 C 93.021 322.191,93.017 322.187,92.303 322.135 C 91.437 322.073,91.191 321.580,91.176 319.875 L 91.167 318.833 92.000 318.833 L 92.833 318.833 92.833 318.167 L 92.833 317.500 92.091 317.500 L 91.349 317.500 91.300 316.539 C 91.256 315.685,91.213 315.583,90.917 315.629 M85.045 317.341 C 84.127 317.468,84.137 317.448,84.352 318.597 C 84.453 319.139,84.504 320.427,84.465 321.458 L 84.395 323.333 85.281 323.333 L 86.167 323.333 86.167 321.290 C 86.167 318.950,86.271 318.767,87.558 318.860 L 88.250 318.910 88.402 318.190 C 88.626 317.125,87.557 316.747,86.483 317.512 C 86.019 317.843,85.993 317.844,85.874 317.551 C 85.771 317.297,85.629 317.261,85.045 317.341 M101.417 317.296 C 100.248 317.402,100.176 317.452,100.345 318.041 C 100.430 318.338,100.500 319.650,100.500 320.957 L 100.500 323.333 101.333 323.333 L 102.167 323.333 102.167 321.454 C 102.167 319.073,102.329 318.758,103.495 318.871 L 104.279 318.946 104.478 318.200 C 104.715 317.315,104.716 317.317,103.792 317.213 C 103.184 317.144,102.984 317.202,102.546 317.571 L 102.023 318.010 101.970 317.630 C 101.926 317.318,101.827 317.258,101.417 317.296 M106.750 317.361 C 103.367 319.227,104.801 323.619,108.746 323.474 C 110.537 323.408,110.427 323.464,110.578 322.549 L 110.693 321.849 110.139 322.008 C 108.664 322.431,107.395 322.091,106.904 321.142 L 106.658 320.667 108.662 320.667 L 110.667 320.667 110.667 319.742 C 110.667 317.702,108.509 316.390,106.750 317.361 M145.545 317.343 C 144.605 317.470,144.609 317.461,144.828 318.862 C 144.944 319.607,144.974 320.717,144.904 321.708 L 144.790 323.333 145.731 323.333 L 146.673 323.333 146.562 321.508 C 146.418 319.148,146.599 318.773,147.837 318.860 L 148.647 318.917 148.850 318.193 C 149.162 317.075,147.916 316.698,146.858 317.588 L 146.356 318.010 146.303 317.629 C 146.255 317.282,146.186 317.256,145.545 317.343 M151.063 317.406 C 149.203 318.216,148.790 321.347,150.353 322.781 C 151.665 323.983,155.000 323.788,155.000 322.508 C 155.000 321.861,154.987 321.846,154.572 322.004 C 153.244 322.509,151.575 322.023,151.262 321.039 C 151.150 320.684,151.181 320.677,153.115 320.630 L 155.083 320.583 155.049 319.608 C 154.979 317.592,153.065 316.535,151.063 317.406 M157.329 317.516 C 156.394 318.057,155.968 318.826,155.874 320.135 C 155.714 322.372,156.853 323.502,159.265 323.498 C 161.165 323.494,161.333 323.427,161.333 322.663 L 161.333 322.032 160.038 322.120 C 158.820 322.204,158.712 322.183,158.225 321.773 C 157.101 320.827,157.288 320.667,159.516 320.667 L 161.500 320.667 161.500 319.817 C 161.500 317.575,159.309 316.367,157.329 317.516 M163.333 317.278 C 162.147 317.465,162.207 317.380,162.378 318.621 C 162.464 319.242,162.498 320.556,162.454 321.542 L 162.373 323.333 163.270 323.333 L 164.167 323.333 164.167 321.158 L 164.167 318.983 164.772 318.730 C 166.196 318.135,166.646 318.980,166.442 321.861 L 166.337 323.333 167.252 323.333 L 168.167 323.333 168.150 321.042 C 168.141 319.781,168.081 318.563,168.018 318.335 C 167.727 317.291,165.977 316.848,164.659 317.485 C 164.010 317.798,164.000 317.798,164.000 317.485 C 164.000 317.310,163.944 317.177,163.875 317.189 C 163.806 317.202,163.563 317.242,163.333 317.278 M179.730 317.347 C 179.300 317.472,179.193 317.604,179.110 318.115 C 178.989 318.866,179.005 318.886,179.571 318.671 C 180.743 318.226,182.333 318.551,182.333 319.237 C 182.333 319.588,182.236 319.640,181.375 319.748 C 179.699 319.957,178.833 320.680,178.833 321.869 C 178.833 323.225,180.630 324.016,181.994 323.261 C 182.344 323.067,182.430 323.069,182.581 323.275 C 182.709 323.450,182.938 323.487,183.420 323.410 L 184.083 323.304 184.029 320.860 C 183.968 318.138,183.858 317.799,182.909 317.403 C 182.286 317.142,180.542 317.112,179.730 317.347 M193.083 317.361 C 189.700 319.227,191.134 323.619,195.079 323.474 C 196.872 323.408,196.784 323.453,196.929 322.541 L 197.041 321.845 196.480 322.006 C 194.998 322.431,193.729 322.093,193.237 321.142 L 192.991 320.667 194.996 320.667 L 197.000 320.667 197.000 319.742 C 197.000 317.702,194.842 316.390,193.083 317.361 M215.250 317.370 C 213.488 317.995,212.617 320.209,213.446 321.956 C 214.272 323.696,217.852 324.210,218.109 322.626 L 218.206 322.028 217.192 322.120 C 216.002 322.228,215.475 321.975,215.055 321.094 C 214.326 319.566,215.898 317.899,217.340 318.670 C 217.611 318.815,217.674 318.772,217.761 318.379 C 217.818 318.125,217.897 317.795,217.937 317.646 C 218.064 317.172,216.316 316.992,215.250 317.370 M227.049 317.611 C 225.548 318.584,225.070 320.899,226.065 322.375 C 227.384 324.333,230.926 323.827,231.669 321.575 C 232.679 318.516,229.654 315.921,227.049 317.611 M234.074 317.595 C 231.294 319.397,232.349 323.552,235.588 323.560 C 237.858 323.566,239.133 321.911,238.762 319.441 C 238.471 317.495,235.830 316.455,234.074 317.595 M253.466 317.394 C 251.555 318.242,250.923 321.410,252.401 322.728 C 254.375 324.487,257.299 323.564,257.847 321.009 C 258.411 318.379,255.905 316.311,253.466 317.394 M259.545 317.343 C 258.605 317.470,258.609 317.461,258.828 318.862 C 258.944 319.607,258.974 320.717,258.904 321.708 L 258.790 323.333 259.737 323.333 L 260.685 323.333 260.569 321.506 C 260.419 319.138,260.596 318.773,261.851 318.860 C 262.688 318.918,262.994 318.571,262.999 317.559 C 263.002 317.013,261.518 317.033,260.858 317.588 L 260.356 318.010 260.303 317.629 C 260.255 317.282,260.186 317.256,259.545 317.343 M294.000 317.333 C 293.353 317.405,293.252 317.468,293.262 317.792 C 293.268 317.998,293.287 319.329,293.304 320.750 L 293.333 323.333 294.167 323.333 L 295.000 323.333 295.000 321.417 C 295.000 319.093,295.187 318.762,296.439 318.861 C 297.116 318.915,297.188 318.884,297.272 318.502 C 297.323 318.272,297.403 317.943,297.450 317.771 C 297.629 317.116,296.191 316.921,295.455 317.500 C 294.936 317.908,294.871 317.912,294.803 317.542 C 294.759 317.300,294.622 317.264,294.000 317.333 M299.506 317.466 C 297.937 318.237,297.341 320.919,298.436 322.282 C 299.234 323.275,299.959 323.541,301.683 323.474 C 303.351 323.408,303.331 323.419,303.452 322.519 L 303.542 321.844 302.981 322.006 C 301.498 322.431,300.229 322.093,299.737 321.142 L 299.491 320.667 301.496 320.667 L 303.500 320.667 303.500 319.742 C 303.500 317.592,301.532 316.471,299.506 317.466 M305.417 317.296 C 304.248 317.402,304.176 317.452,304.345 318.041 C 304.430 318.338,304.500 319.650,304.500 320.957 L 304.500 323.333 305.333 323.333 L 306.167 323.333 306.167 321.158 L 306.167 318.983 306.745 318.741 C 308.200 318.134,308.500 318.563,308.500 321.250 L 308.500 323.333 309.333 323.333 L 310.167 323.333 310.167 320.925 C 310.167 319.531,310.090 318.346,309.984 318.114 C 309.578 317.224,307.979 316.919,306.718 317.491 C 306.077 317.782,306.016 317.785,305.968 317.529 C 305.931 317.329,305.776 317.263,305.417 317.296 M78.042 317.454 L 77.500 317.521 77.501 319.552 C 77.502 321.894,77.672 322.682,78.278 323.159 C 78.801 323.570,80.350 323.622,81.000 323.250 C 81.537 322.943,81.667 322.943,81.667 323.250 C 81.667 323.524,81.860 323.553,82.646 323.396 L 83.167 323.292 83.167 320.291 L 83.167 317.290 82.542 317.393 C 82.198 317.450,81.793 317.497,81.643 317.498 C 81.398 317.500,81.378 317.726,81.459 319.589 C 81.560 321.933,81.469 322.151,80.379 322.161 C 79.465 322.170,79.250 321.624,79.250 319.298 C 79.251 317.113,79.366 317.290,78.042 317.454 M94.141 317.454 L 93.532 317.518 93.608 319.551 C 93.708 322.248,93.766 322.554,94.277 323.065 C 94.780 323.568,96.406 323.679,97.161 323.261 C 97.511 323.067,97.597 323.069,97.748 323.275 C 97.876 323.451,98.105 323.487,98.590 323.410 L 99.255 323.303 99.193 320.360 C 99.121 316.927,99.240 317.307,98.277 317.439 L 97.500 317.545 97.500 319.683 C 97.500 322.044,97.444 322.167,96.365 322.167 C 95.546 322.167,95.423 321.836,95.358 319.475 C 95.307 317.606,95.265 317.337,95.025 317.361 C 94.874 317.377,94.476 317.418,94.141 317.454 M127.667 317.395 C 127.667 317.492,128.136 318.577,128.810 320.040 C 130.228 323.116,130.241 323.937,128.881 324.583 C 128.213 324.901,128.184 324.945,128.279 325.500 C 128.410 326.273,128.393 326.264,129.297 326.023 C 130.418 325.724,130.894 325.188,131.402 323.649 C 131.643 322.922,132.072 321.747,132.356 321.039 C 133.029 319.359,133.667 317.618,133.667 317.459 C 133.667 317.390,133.265 317.333,132.773 317.333 L 131.879 317.333 131.692 318.208 C 131.332 319.891,130.864 321.415,130.783 321.167 C 130.739 321.029,130.485 320.129,130.220 319.167 L 129.739 317.417 128.703 317.367 C 128.133 317.340,127.667 317.352,127.667 317.395 M197.595 317.708 C 197.660 317.915,198.013 318.758,198.379 319.583 C 200.037 323.318,200.048 324.356,198.431 324.761 C 197.838 324.910,197.771 326.167,198.356 326.167 C 199.884 326.167,200.549 325.508,201.344 323.208 C 201.684 322.223,202.121 321.023,202.315 320.542 C 203.608 317.326,203.607 317.333,202.523 317.333 L 201.714 317.333 201.267 319.123 C 200.684 321.462,200.640 321.474,200.097 319.462 C 199.843 318.520,199.607 317.656,199.573 317.542 C 199.532 317.405,199.163 317.333,198.494 317.333 C 197.516 317.333,197.482 317.348,197.595 317.708 M280.439 317.452 C 280.182 317.518,280.146 317.637,280.229 318.141 C 280.284 318.476,280.330 319.781,280.331 321.042 L 280.333 323.333 281.167 323.333 L 282.000 323.333 282.000 320.333 L 282.000 317.333 281.375 317.353 C 281.031 317.363,280.610 317.408,280.439 317.452 M108.634 318.625 C 109.500 319.374,109.301 319.667,107.924 319.667 L 106.658 319.667 106.912 319.175 C 107.348 318.332,108.039 318.111,108.634 318.625 M153.292 318.784 C 153.798 319.463,153.577 319.667,152.333 319.667 C 151.007 319.667,150.851 319.467,151.594 318.724 C 152.078 318.241,152.909 318.270,153.292 318.784 M159.591 318.742 C 160.325 319.477,160.155 319.667,158.766 319.667 C 157.671 319.667,157.540 319.634,157.609 319.375 C 157.883 318.356,158.885 318.036,159.591 318.742 M195.091 318.742 C 195.828 319.479,195.656 319.667,194.246 319.667 L 192.991 319.667 193.246 319.175 C 193.717 318.264,194.443 318.094,195.091 318.742 M229.705 319.054 C 230.405 320.037,230.064 321.965,229.140 322.259 C 228.192 322.559,227.335 321.646,227.335 320.333 C 227.335 318.558,228.792 317.772,229.705 319.054 M255.651 318.900 C 256.131 319.410,256.270 320.596,255.943 321.379 C 255.244 323.051,253.336 322.308,253.334 320.364 C 253.332 318.650,254.640 317.824,255.651 318.900 M301.655 318.772 C 302.261 319.543,302.135 319.667,300.746 319.667 L 299.491 319.667 299.746 319.175 C 300.225 318.248,301.098 318.064,301.655 318.772 M115.583 320.327 L 115.583 322.070 115.013 322.186 C 113.793 322.436,113.029 321.504,113.234 320.014 C 113.382 318.928,113.874 318.472,114.828 318.534 L 115.583 318.583 115.583 320.327 M125.013 318.930 C 126.176 320.168,125.044 322.708,123.550 322.212 C 123.026 322.037,122.732 319.273,123.181 318.733 C 123.514 318.332,124.555 318.443,125.013 318.930 M236.679 319.017 C 237.419 320.056,237.054 322.021,236.075 322.267 C 234.704 322.611,233.779 320.494,234.665 319.042 C 235.137 318.268,236.137 318.256,236.679 319.017 M290.417 320.327 L 290.417 322.070 289.846 322.186 C 288.718 322.417,288.000 321.696,288.000 320.331 C 288.000 319.062,288.541 318.481,289.667 318.542 L 290.417 318.583 290.417 320.327 M182.333 321.398 C 182.333 322.105,182.314 322.133,181.736 322.242 C 181.212 322.340,180.333 322.038,180.333 321.760 C 180.333 321.250,181.175 320.687,181.958 320.673 C 182.291 320.667,182.333 320.749,182.333 321.398 " stroke="none" fill="#0c2454" fill-rule="evenodd"></path><path id="path4" d="M152.212 138.333 C 152.212 138.746,152.245 138.915,152.284 138.708 C 152.324 138.502,152.324 138.165,152.284 137.958 C 152.245 137.752,152.212 137.921,152.212 138.333 M152.212 143.667 C 152.212 144.079,152.245 144.248,152.284 144.042 C 152.324 143.835,152.324 143.498,152.284 143.292 C 152.245 143.085,152.212 143.254,152.212 143.667 M229.627 177.618 C 229.834 177.658,230.134 177.656,230.294 177.615 C 230.453 177.573,230.283 177.540,229.917 177.542 C 229.550 177.544,229.420 177.578,229.627 177.618 M174.075 218.042 L 173.417 218.750 174.125 218.091 C 174.784 217.478,174.910 217.333,174.784 217.333 C 174.757 217.333,174.438 217.652,174.075 218.042 M177.829 221.292 L 176.750 222.417 177.875 221.338 C 178.920 220.336,179.076 220.167,178.954 220.167 C 178.928 220.167,178.422 220.673,177.829 221.292 " stroke="none" fill="#44805c" fill-rule="evenodd"></path></g></svg>